# xmcd CD database file
#
# Track frame offsets:
#	150
#	12786
#	25202
#	38483
#	50961
#	65436
#	80131
#	95425
#	108354
#	120899
#	133573
#	146087
#	161857
#	175096
#	188620
#	203086
#	215562
#
# Disc length: 3050 seconds
#
# Revision: 0
# Processed by: cddbd v1.4PL0 Copyright (c) Steve Scherf et al.
# Submitted via: Feurio! 1.66 - http://www.feurio.com
#
DISCID=e90be811
DTITLE=Various Artist - Blues Is Back -CD 1
DYEAR=2002
DGENRE=Blues
TTITLE0=Sonny Terry - Airplane Blues
TTITLE1=S.J. Estes - Drop Down
TTITLE2=B. Smith - Mama's Got The Blues
TTITLE3=Memphis Minnie - Me And My Chauffeur Blues
TTITLE4=Jo. L. Williamson - Susi-Q
TTITLE5=M. Rainey - Booze And Blues
TTITLE6=Davis - CC Rider
TTITLE7=Big Joe Turner - Howlin' Winds
TTITLE8=C.J. Dupree - Gamblin Man Blues
TTITLE9=B. White - Pinebluff, Arkansas
TTITLE10=B. McGhee - Step It Up And Go Now
TTITLE11=B. Smith - Cemetery Blues
TTITLE12=J.L. Williamson - Stop Breaking Down
TTITLE13=B.B. Fuller - My Brownskin Sugar Plum
TTITLE14=Barbeque Bob - Barbeque Blues
TTITLE15=J.L. Williamson - Shake The Boogie
TTITLE16=L. Carr - When The Sun Goes Down
EXTD=Blues Is Back -CD 1\r\n3 CD - VÖ-Datum: 13.2.2002\r\nTrilogie\r\n\r\n18. 
EXTD=J.L. Williamson: Baby please don't go\r\n19. J. Hurt: Frankie\r\n20. C. 
EXTD=Patton: Revue man blues\r\n21. A. Crudup: Mean old Frisco blues\r\n22. 
EXTD=T-Bone Walker with Marl and His Orchestra: T-Bone boogie\r\n23. J. Davis: 
EXTD=Everyday I have the blues\r\n24. B. McGhee: Death of Blind Boy 
EXTD=Fuller\r\n25. J. Yancey: Yancey stomp\r\n26. J.L. Hooker: Stomp 
EXTD=boogie\r\n27. R. Johnson: Preaching blues\r\n28. P. Chatman: Jasper's 
EXTD=gal\r\n29. H. Thomas: Red river blues\r\n30. K. Arnold: Gras cutter 
EXTD=blues\r\n31. M. Waters: Walkin' blues\r\n32. B.B. Fuller: Baby you gotta 
EXTD=change your mind\r\n33. K. Arnold: Shake that thing\r\n34. J. Temple: 
EXTD=Lead pencil blues\r\n35. B.B. Fuller and S. Terry: Blowing the blues\r\n36. 
EXTD=B.B. Broonzy: Good jelly\r\n37. P. Chatman: The jive blues\r\n38. K. 
EXTD=Arnold: Sally dog\r\n39. T. Red: You can't get that stuff no more\r\n40. 
EXTD=J.L. Williamson: Black gal blues\r\n41. B.W. McTell: Georgia rag\r\n42. 
EXTD=M. Minnie: Joe Louis strut\r\n43. M. Waters: I can't be satisfied\r\n44. 
EXTD=H. Ledbetter: Midnight special\r\n45. L. Hopkins: Can't do like you used 
EXTD=to\r\n46. B. McGhee: Million lonesome woman\r\n47. M. Waters: Burr clover 
EXTD=farm blues\r\n48. L. Johnson: Life saver blues\r\n49. L. Johnson: Four 
EXTD=hands are better than two\r\n50. M. Waters: Little Anna Mea\r\n51. B.W. 
EXTD=Johnson: Nobody's fault but mine\r\n52. M. Waters: I be bound to write to 
EXTD=you\r\n
EXTT0=
EXTT1=
EXTT2=
EXTT3=
EXTT4=
EXTT5=
EXTT6=
EXTT7=
EXTT8=
EXTT9=
EXTT10=
EXTT11=
EXTT12=
EXTT13=
EXTT14=
EXTT15=
EXTT16=
PLAYORDER=
